<svg width="63" height="61" viewBox="0 0 63 61" fill="none" xmlns="http://www.w3.org/2000/svg">
<path d="M11.6037 0.835938H51.337C57.337 0.835938 62.2037 5.7026 62.2037 11.7026V49.9026C62.2037 55.9026 57.337 60.7693 51.337 60.7693H11.6037C5.60367 60.7693 0.737005 55.9026 0.737005 49.9026V11.7026C0.670338 5.7026 5.53701 0.835938 11.6037 0.835938Z" fill="#330000"/>
<path d="M30.403 36.701H20.8696L18.9363 42.701C18.8696 42.901 18.6696 43.101 18.4696 43.0344H13.6696C13.403 43.0344 13.3363 42.901 13.403 42.5677L21.6696 18.7677C21.7363 18.501 21.803 18.2344 21.9363 17.901C22.0696 17.3677 22.0696 16.7677 22.0696 16.2344C22.0696 16.101 22.1363 15.9677 22.2696 15.9677H28.9363C29.1363 15.9677 29.2696 16.0344 29.2696 16.1677L38.6029 42.5677C38.6696 42.8344 38.603 42.9677 38.3363 42.9677H33.0029C32.8029 42.9677 32.6696 42.8344 32.6029 42.701L30.403 36.701ZM22.403 31.501H28.9363C28.8029 30.9677 28.6029 30.301 28.3363 29.6344C28.1363 28.9677 27.8696 28.1677 27.6696 27.4344C27.4029 26.6344 27.203 25.901 26.9363 25.101C26.6696 24.301 26.4696 23.5677 26.2696 22.8344C26.0696 22.101 25.8696 21.4344 25.7363 20.8344H25.6696C25.4696 21.9677 25.1363 23.0344 24.8029 24.1677C24.403 25.3677 24.003 26.701 23.603 27.9677C23.1363 29.2344 22.7363 30.4344 22.403 31.501ZM44.2696 20.5677C43.4029 20.5677 42.603 20.2344 42.003 19.701C41.403 19.0344 41.1363 18.2344 41.1363 17.3677C41.1363 16.501 41.4696 15.701 42.0696 15.101C42.6696 14.501 43.5363 14.2344 44.3363 14.2344C45.3363 14.2344 46.1363 14.5677 46.6696 15.101C47.2029 15.701 47.5363 16.5677 47.5363 17.3677C47.5363 18.2344 47.2696 19.101 46.6696 19.701C46.0029 20.301 45.1363 20.6344 44.2696 20.5677ZM41.403 42.8344V23.101C41.403 22.8344 41.5363 22.7677 41.7363 22.7677H46.8029C47.0029 22.7677 47.1363 22.901 47.1363 23.101V42.8344C47.1363 43.101 47.0029 43.2344 46.8029 43.2344H41.8029C41.5363 43.2344 41.403 43.101 41.403 42.8344Z" fill="#FF9A00"/>
</svg>
