<svg width="75" height="61" viewBox="0 0 75 61" fill="none" xmlns="http://www.w3.org/2000/svg">
<path d="M39.402 34.5389C39.5797 32.0524 40.8229 29.921 42.599 28.3225C44.3752 26.724 46.8617 25.8359 49.3483 25.8359C52.0125 25.8359 54.3214 26.724 56.0976 28.3225C57.8737 29.921 59.117 32.0524 59.2946 34.5389C59.4722 37.0255 58.4065 39.3345 56.6304 41.1106C54.8543 42.8867 52.1901 43.9524 49.3483 43.9524C46.5065 43.9524 43.8423 42.8867 42.0662 41.1106C40.2901 39.5121 39.2244 37.0255 39.402 34.5389Z" fill="#265787"/>
<path d="M23.5947 39.5138C23.5947 40.4019 23.9499 42.3556 24.3051 43.7765C25.1932 46.7959 26.9693 49.8153 29.2782 52.3019C31.5872 54.9661 34.429 56.9198 37.8036 58.5183C41.3559 60.1168 45.0857 60.8272 48.9932 60.8272C52.9007 60.8272 56.8081 59.9392 60.1828 58.5183C63.5574 57.0974 66.3992 54.9661 68.7081 52.3019C71.0171 49.8153 72.6156 46.9735 73.6813 43.7765C74.2141 42.178 74.3917 40.5795 74.5693 38.981C74.7469 37.3825 74.5693 35.7839 74.3917 34.1854C74.0365 31.166 72.9708 28.3243 71.1947 25.6601C69.7738 23.1735 67.8201 21.2198 65.5111 19.4437L42.4216 1.68246C40.823 0.439179 38.3365 0.439179 36.738 1.68246C35.1395 2.92575 34.7842 4.87948 36.3827 6.12276L45.9738 13.9377H16.6678C14.1812 13.9377 11.8723 15.5362 11.5171 17.4899C10.9842 19.6213 12.7603 21.2198 15.2469 21.2198H30.1663L3.70213 41.6452C3.70213 41.6452 3.70212 41.6452 3.52451 41.6452C1.03794 43.5989 0.149882 46.7959 1.74839 48.7496C3.3469 50.881 6.72155 50.881 9.20812 48.7496L23.7723 36.8496C23.7723 37.0272 23.4171 38.6257 23.5947 39.5138ZM60.7156 44.8422C57.6962 47.8616 53.6111 49.6377 48.9932 49.6377C44.5529 49.6377 40.2902 47.8616 37.2708 44.8422C35.8499 43.4213 34.7842 41.6452 34.0738 39.869C33.3633 38.0929 33.1857 36.1392 33.3633 34.3631C33.5409 32.5869 34.0738 30.6332 34.9619 29.0347C35.8499 27.4362 37.0932 26.0153 38.5141 24.772C41.3559 22.4631 45.0857 21.0422 48.9932 21.0422C52.9007 21.0422 56.6305 22.2854 59.4723 24.5944C60.8932 25.8377 62.1365 27.2586 63.0245 28.8571C63.9126 30.4556 64.4454 32.2317 64.6231 34.1854C64.8007 36.1392 64.623 37.9153 63.9126 39.6914C63.2021 41.6451 62.1365 43.4213 60.7156 44.8422Z" fill="#EA7600"/>
</svg>
