<svg width="41" height="61" viewBox="0 0 41 61" fill="none" xmlns="http://www.w3.org/2000/svg">
<path d="M10.4707 60.8359C16.004 60.8359 20.4707 56.3693 20.4707 50.8359V40.8359H10.4707C4.93737 40.8359 0.470703 45.3026 0.470703 50.8359C0.470703 56.3693 4.93737 60.8359 10.4707 60.8359Z" fill="#0ACF83"/>
<path d="M0.470703 30.8359C0.470703 25.3026 4.93737 20.8359 10.4707 20.8359H20.4707V40.8359H10.4707C4.93737 40.8359 0.470703 36.3693 0.470703 30.8359Z" fill="#A259FF"/>
<path d="M0.470703 10.8359C0.470703 5.3026 4.93737 0.835938 10.4707 0.835938H20.4707V20.8359H10.4707C4.93737 20.8359 0.470703 16.3693 0.470703 10.8359Z" fill="#F24E1E"/>
<path d="M20.4707 0.835938H30.4707C36.004 0.835938 40.4707 5.3026 40.4707 10.8359C40.4707 16.3693 36.004 20.8359 30.4707 20.8359H20.4707V0.835938Z" fill="#FF7262"/>
<path d="M40.4707 30.8359C40.4707 36.3693 36.004 40.8359 30.4707 40.8359C24.9374 40.8359 20.4707 36.3693 20.4707 30.8359C20.4707 25.3026 24.9374 20.8359 30.4707 20.8359C36.004 20.8359 40.4707 25.3026 40.4707 30.8359Z" fill="#1ABCFE"/>
</svg>
