<svg width="67" height="61" viewBox="0 0 67 61" fill="none" xmlns="http://www.w3.org/2000/svg">
<path fill-rule="evenodd" clip-rule="evenodd" d="M51.8039 2.83594L33.1372 0.835938L14.4706 2.83594L0.00390625 22.2359L33.1372 60.8359L66.2706 22.2359L51.8039 2.83594Z" fill="#FEEEB7"/>
<path fill-rule="evenodd" clip-rule="evenodd" d="M13.4039 22.2344L33.1372 60.8344L0.00390625 22.2344H13.4039Z" fill="#EA6C00"/>
<path fill-rule="evenodd" clip-rule="evenodd" d="M52.8701 22.2344L33.1367 60.8344L66.2701 22.2344H52.8701Z" fill="#EA6C00"/>
<path fill-rule="evenodd" clip-rule="evenodd" d="M13.4043 22.2344H52.871L33.1376 60.8344L13.4043 22.2344Z" fill="#FDAD00"/>
<path fill-rule="evenodd" clip-rule="evenodd" d="M33.1376 0.835938L14.471 2.83594L13.4043 22.2359L33.1376 0.835938Z" fill="#FDD231"/>
<path fill-rule="evenodd" clip-rule="evenodd" d="M33.1367 0.835938L51.8034 2.83594L52.8701 22.2359L33.1367 0.835938Z" fill="#FDD231"/>
<path fill-rule="evenodd" clip-rule="evenodd" d="M66.2714 22.2359L51.8047 2.83594L52.8714 22.2359H66.2714Z" fill="#FDAD00"/>
<path fill-rule="evenodd" clip-rule="evenodd" d="M0.00390625 22.2359L14.4706 2.83594L13.4039 22.2359H0.00390625Z" fill="#FDAD00"/>
<path fill-rule="evenodd" clip-rule="evenodd" d="M33.1376 0.835938L13.4043 22.2359H52.871L33.1376 0.835938Z" fill="#FEEEB7"/>
</svg>
