<svg width="53" height="61" viewBox="0 0 53 61" fill="none" xmlns="http://www.w3.org/2000/svg">
<path d="M53.0036 0.765625L48.137 54.7656L26.4703 60.7656L4.87031 54.7656L0.0703125 0.765625H53.0036Z" fill="#264DE4"/>
<path d="M44.0038 51.2974L48.1371 5.16406H26.5371V56.1641L44.0038 51.2974Z" fill="#2965F1"/>
<path d="M11.1367 25.2344L11.7367 31.8344H26.5367V25.2344H11.1367Z" fill="#EBEBEB"/>
<path d="M26.5375 11.8359H26.4708H9.9375L10.5375 18.4359H26.5375V11.8359Z" fill="#EBEBEB"/>
<path d="M26.5372 49.2974V42.4307H26.4706L19.1372 40.4307L18.6706 35.1641H15.0706H12.0039L12.9372 45.5641L26.4706 49.2974H26.5372Z" fill="#EBEBEB"/>
<path d="M34.6707 31.8359L33.8707 40.4359L26.4707 42.4359V49.3026L40.0707 45.5693L40.204 44.4359L41.7374 26.9693L41.8707 25.2359L43.0707 11.8359H26.4707V18.4359H35.804L35.204 25.2359H26.4707V31.8359H34.6707Z" fill="white"/>
</svg>
