<svg width="81" height="61" viewBox="0 0 81 61" fill="none" xmlns="http://www.w3.org/2000/svg">
<g clip-path="url(#clip0_101_461)">
<g clip-path="url(#clip1_101_461)">
<g clip-path="url(#clip2_101_461)">
<path d="M20.6037 0.835938H60.337C66.337 0.835938 71.2037 5.7026 71.2037 11.7026V49.9026C71.2037 55.9026 66.337 60.7693 60.337 60.7693H20.6037C14.6037 60.7693 9.737 55.9026 9.737 49.9026V11.7026C9.67034 5.7026 14.537 0.835938 20.6037 0.835938Z" fill="#001E36"/>
<path d="M23.5371 42.9016V16.5016C23.5371 16.3016 23.6038 16.2349 23.8038 16.2349C24.2704 16.2349 24.6704 16.2349 25.2704 16.2349C25.8704 16.2349 26.5371 16.2349 27.2038 16.1682C27.8704 16.1682 28.6704 16.1682 29.4038 16.1016C30.2038 16.1016 30.9371 16.1016 31.7371 16.1016C33.8704 16.1016 35.6038 16.3682 37.0038 16.9016C38.2704 17.3682 39.4704 18.0349 40.4704 19.0349C41.2704 19.8349 41.9371 20.8349 42.3371 21.9682C42.7371 23.0349 42.9371 24.1682 42.9371 25.3016C42.9371 27.5016 42.4038 29.3016 41.4038 30.7682C40.4038 32.2349 38.9371 33.3016 37.2704 33.9016C35.5371 34.5682 33.6038 34.7682 31.4704 34.7682C30.8704 34.7682 30.4704 34.7682 30.2038 34.7682C29.9371 34.7682 29.6038 34.7682 29.0704 34.7682V42.9682C29.0704 43.1682 28.9371 43.3016 28.8038 43.3016H23.8038C23.6704 43.2349 23.5371 43.1682 23.5371 42.9016ZM29.1371 21.1682V29.7682C29.4704 29.7682 29.8038 29.8349 30.1371 29.8349H31.4704C32.4704 29.8349 33.4704 29.7016 34.4038 29.3682C35.2038 29.1682 35.9371 28.6349 36.5371 28.0349C37.0704 27.3682 37.3371 26.5016 37.3371 25.3682C37.3371 24.5682 37.1371 23.7682 36.7371 23.1016C36.2704 22.4349 35.6704 21.9016 34.9371 21.6349C34.0038 21.2349 32.9371 21.1016 31.9371 21.1016C31.2704 21.1016 30.6704 21.1016 30.2038 21.1016C29.6704 21.1682 29.3371 21.1682 29.1371 21.1682ZM58.9371 28.2349C58.1371 27.8349 57.3371 27.5682 56.4704 27.3682C55.5371 27.1682 54.6038 27.0349 53.6038 27.0349C53.0704 27.0349 52.5371 27.1016 52.0704 27.2349C51.7371 27.3016 51.4704 27.5016 51.2704 27.7682C51.1371 27.9682 51.0704 28.2349 51.0704 28.4349C51.0704 28.6349 51.2038 28.9016 51.3371 29.1016C51.5371 29.3682 51.8704 29.6349 52.2038 29.7682C52.8038 30.1016 53.4038 30.3682 54.0038 30.6349C55.4038 31.1016 56.7371 31.7682 57.9371 32.5016C58.8038 33.0349 59.4704 33.7682 59.9371 34.6349C60.3371 35.4349 60.5371 36.3682 60.5371 37.3016C60.5371 38.5016 60.2038 39.7016 59.5371 40.7016C58.8038 41.7016 57.8038 42.5016 56.6704 42.9682C55.4038 43.5016 53.8704 43.7682 52.0038 43.7682C50.8038 43.7682 49.6704 43.6349 48.5371 43.4349C47.6704 43.3016 46.7371 42.9682 45.9371 42.6349C45.7371 42.5016 45.6038 42.3682 45.6704 42.1682V37.7016C45.6704 37.6349 45.6704 37.5016 45.8038 37.5016C45.8704 37.4349 45.9371 37.5016 46.0038 37.5016C47.0038 38.1016 48.0704 38.5016 49.2038 38.7682C50.2038 39.0349 51.2038 39.1682 52.2038 39.1682C53.2038 39.1682 53.8704 39.0349 54.3371 38.8349C54.7371 38.6349 55.0038 38.2349 55.0038 37.7682C55.0038 37.4349 54.8038 37.1016 54.4038 36.7682C54.0038 36.4349 53.1371 36.0349 51.8704 35.5682C50.5371 35.1016 49.3371 34.5016 48.2038 33.7016C47.4038 33.1682 46.7371 32.3682 46.2704 31.5016C45.8704 30.7016 45.6704 29.7682 45.6704 28.9016C45.6704 27.7682 46.0038 26.7682 46.5371 25.7682C47.2038 24.7682 48.1371 23.9016 49.2038 23.4349C50.4038 22.8349 51.9371 22.5682 53.7371 22.5682C54.8038 22.5682 55.8704 22.6349 56.9371 22.7682C57.7371 22.9016 58.4704 23.1016 59.1371 23.3682C59.2704 23.3682 59.3371 23.5016 59.4038 23.5682C59.4038 23.7016 59.4704 23.7682 59.4704 23.9016V28.1016C59.4704 28.2349 59.4038 28.3016 59.3371 28.3682C59.1371 28.3016 59.0038 28.3016 58.9371 28.2349Z" fill="#31A8FF"/>
</g>
</g>
</g>
<defs>
<clipPath id="clip0_101_461">
<rect width="80" height="60" fill="white" transform="translate(0.136719 0.835938)"/>
</clipPath>
<clipPath id="clip1_101_461">
<rect width="80" height="60" fill="white" transform="translate(0.136719 0.835938)"/>
</clipPath>
<clipPath id="clip2_101_461">
<rect width="80" height="60" fill="white" transform="translate(0.136719 0.835938)"/>
</clipPath>
</defs>
</svg>
