<svg width="53" height="61" viewBox="0 0 53 61" fill="none" xmlns="http://www.w3.org/2000/svg">
<path d="M4.93672 54.8359L0.136719 0.835938H53.0034L48.1367 54.8359L26.5367 60.8359L4.93672 54.8359Z" fill="#E34E26"/>
<path d="M26.5371 5.30469V56.3047L44.0704 51.438L48.1371 5.30469H26.5371Z" fill="#EF662A"/>
<path d="M9.9375 11.9062L11.7375 31.9062H34.6708L33.9375 40.5063L26.5375 42.5063L19.1375 40.5063L18.6708 34.9729H12.0042L13.0042 45.6396L26.5375 49.3729L40.1375 45.6396L41.9375 25.3063H17.8042L17.2042 18.5062H42.5375L43.1375 11.9062H9.9375Z" fill="white"/>
<path d="M26.5375 11.9062H9.9375L11.7375 31.9062H26.5375V25.3062H17.8042L17.2042 18.5062H26.5375V11.9062Z" fill="#EBEBEB"/>
<path d="M26.5372 42.5099L19.1372 40.5099L18.6706 34.9766H12.0039L13.0039 45.6432L26.5372 49.3766V42.5099Z" fill="#EBEBEB"/>
</svg>
